<!--?xml version="1.0" standalone="no"?-->

<svg version="1.0" xmlns="http://www.w3.org/2000/svg" width="300.000000pt" height="300.000000pt" viewBox="0 0 300.000000 300.000000" preserveAspectRatio="xMidYMid meet">
<g transform="translate(0.000000,300.000000) scale(0.100000,-0.100000)" fill="#0F0F0F" stroke="none">
<path class="node" id="node1" d="M481 2202 c-22 -17 -22 -22 -22 -302 l0 -285 46 -3 45 -3 0 255 0
256 780 0 780 0 0 -81 0 -80 48 3 47 3 0 108 c0 102 -1 110 -24 128 -22 18
-51 19 -851 19 -774 0 -829 -1 -849 -18z"></path>
<path class="node" id="node2" d="M1974 1883 c-12 -2 -30 -13 -40 -25 -18 -19 -19 -47 -19 -509 0 -455
1 -489 18 -506 16 -16 47 -18 366 -21 340 -3 348 -2 374 18 l27 21 0 489 c0
465 -1 489 -19 511 l-19 24 -334 1 c-183 1 -343 0 -354 -3z m681 -483 l0 -415
-345 0 -345 0 -3 418 -2 417 347 -2 348 -3 0 -415z m-437 -462 c17 -17 15 -53
-3 -68 -38 -31 -96 27 -65 65 15 18 51 20 68 3z m126 -10 c13 -19 14 -25 2
-43 -20 -30 -52 -31 -71 -1 -14 20 -14 28 -3 45 17 27 53 27 72 -1z m126 2
c23 -43 -17 -83 -60 -60 -22 12 -27 49 -8 68 19 19 56 14 68 -8z"></path>
<path class="node" id="node3" d="M316 1515 c-14 -14 -16 -59 -16 -360 0 -301 2 -346 16 -360 14 -13
42 -15 192 -13 l176 3 13 25 c18 36 18 654 0 690 l-13 25 -176 3 c-150 2 -178
0 -192 -13z m224 -55 c0 -5 -16 -10 -35 -10 -19 0 -35 5 -35 10 0 6 16 10 35
10 19 0 35 -4 35 -10z m130 -310 l0 -260 -167 2 -168 3 -3 258 -2 257 170 0
170 0 0 -260z m-142 -306 c4 -29 -23 -51 -43 -34 -16 13 -20 42 -8 54 14 14
48 1 51 -20z"></path>
<path class="node" id="node4" d="M790 1170 l0 -100 523 0 522 0 -2 97 -1 98 -521 3 -521 2 0 -100z
m568 34 c41 -29 23 -84 -28 -84 -48 0 -67 45 -33 82 20 22 32 23 61 2z"></path>
<path class="node" id="node5" d="M1144 943 c-5 -36 -15 -56 -40 -80 -19 -17 -34 -34 -34 -37 0 -3 117
-6 260 -6 143 0 260 2 260 4 0 2 -16 20 -35 39 -22 22 -35 45 -35 62 0 14 -5
35 -10 46 -10 18 -23 19 -185 19 l-174 0 -7 -47z"></path>
</g>
<g transform="translate(0.000000,300.000000) scale(0.100000,-0.100000)" fill="#9D9D9D" stroke="none">

<path class="node" id="node7" d="M1962 1403 l3 -418 345 0 345 0 0 415 0 415 -348 3 -347 2 2 -417z"></path>
<path class="node" id="node8" d="M2150 935 c-31 -38 27 -96 65 -65 18 15 20 51 3 68 -17 17 -53 15
-68 -3z"></path>
<path class="node" id="node9" d="M2272 929 c-11 -17 -11 -25 3 -45 19 -30 51 -29 71 1 12 18 11 24 -2
43 -19 28 -55 28 -72 1z"></path>
<path class="node" id="node10" d="M2402 938 c-19 -19 -14 -56 8 -68 43 -23 83 17 60 60 -12 22 -49 27
-68 8z"></path>
<path class="node" id="node11" d="M470 1460 c0 -5 16 -10 35 -10 19 0 35 5 35 10 0 6 -16 10 -35 10
-19 0 -35 -4 -35 -10z"></path>
<path class="node" id="node12" d="M332 1153 l3 -258 168 -3 167 -2 0 260 0 260 -170 0 -170 0 2 -257z"></path>
<path class="node" id="node13" d="M477 864 c-12 -12 -8 -41 8 -54 20 -17 47 5 43 34 -3 21 -37 34 -51
20z"></path>
<path class="node" id="node14" d="M1297 1202 c-34 -37 -15 -82 33 -82 51 0 69 55 28 84 -29 21 -41 20
-61 -2z"></path>
</g>
</svg>